HIERARCHY
ROOT Hips
{
  OFFSET 43.0842 91.1655 101.099
  CHANNELS 6 Xposition Yposition Zposition Zrotation Xrotation Yrotation
  JOINT LeftUpLeg
  {
    OFFSET 8.64259 1.95398 -2.38835
    CHANNELS 3 Zrotation Xrotation Yrotation
    JOINT LeftLeg
    {
      OFFSET 43.7702 0 0
      CHANNELS 3 Zrotation Xrotation Yrotation
      JOINT LeftFoot
      {
        OFFSET 40.6238 0 0
        CHANNELS 3 Zrotation Xrotation Yrotation
        JOINT LeftToeBase
        {
          OFFSET 12.7242 0 0
          CHANNELS 3 Zrotation Xrotation Yrotation
          End Site
          {
            OFFSET 0 0 0
          }
        }
      }
    }
  }
  JOINT RightUpLeg
  {
    OFFSET -8.2249 1.95398 -2.59336
    CHANNELS 3 Zrotation Xrotation Yrotation
    JOINT RightLeg
    {
      OFFSET 43.5653 0 0
      CHANNELS 3 Zrotation Xrotation Yrotation
      JOINT RightFoot
      {
        OFFSET 40.6238 0 0
        CHANNELS 3 Zrotation Xrotation Yrotation
        JOINT RightToeBase
        {
          OFFSET 12.7242 0 0
          CHANNELS 3 Zrotation Xrotation Yrotation
          End Site
          {
            OFFSET 0 0 0
          }
        }
      }
    }
  }
  JOINT Spine
  {
    OFFSET 0.165834 0.87714 6.61349
    CHANNELS 3 Zrotation Xrotation Yrotation
    JOINT Spine1
    {
      OFFSET 7.38963 1.71661e-005 0
      CHANNELS 3 Zrotation Xrotation Yrotation
      JOINT Spine2
      {
        OFFSET 11.9445 1.14441e-005 0
        CHANNELS 3 Zrotation Xrotation Yrotation
        JOINT Spine3
        {
          OFFSET 14.7254 4.19617e-005 0
          CHANNELS 3 Zrotation Xrotation Yrotation
          JOINT Spine4
          {
            OFFSET 10.9679 0 0
            CHANNELS 3 Zrotation Xrotation Yrotation
            JOINT RightShoulder
            {
              OFFSET 2.46616 -1.6653 3.69651
              CHANNELS 3 Zrotation Xrotation Yrotation
              JOINT RightArm
              {
                OFFSET 13.0012 0 0
                CHANNELS 3 Zrotation Xrotation Yrotation
                JOINT RightForeArm
                {
                  OFFSET 28.7848 1.52588e-005 0
                  CHANNELS 3 Zrotation Xrotation Yrotation
                  JOINT RightHand
                  {
                    OFFSET 26.5688 1.52588e-005 0
                    CHANNELS 3 Zrotation Xrotation Yrotation
                    End Site
                    {
                      OFFSET 0 0 0
                    }
                  }
                }
              }
            }
            JOINT LeftShoulder
            {
              OFFSET 2.38034 -1.29275 -3.7523
              CHANNELS 3 Zrotation Xrotation Yrotation
              JOINT LeftArm
              {
                OFFSET 16.3182 6.10351e-005 0
                CHANNELS 3 Zrotation Xrotation Yrotation
                JOINT LeftForeArm
                {
                  OFFSET 27.0901 0 0
                  CHANNELS 3 Zrotation Xrotation Yrotation
                  JOINT LeftHand
                  {
                    OFFSET 24.5451 1.52588e-005 0
                    CHANNELS 3 Zrotation Xrotation Yrotation
                    End Site
                    {
                      OFFSET 0 0 0
                    }
                  }
                }
              }
            }
            JOINT Neck
            {
              OFFSET 5.0226 -0.0266342 0
              CHANNELS 3 Zrotation Xrotation Yrotation
              JOINT Head
              {
                OFFSET 6.69364 2.86102e-005 0
                CHANNELS 3 Zrotation Xrotation Yrotation
                End Site
                {
                  OFFSET 0 0 0
                }
              }
            }
          }
        }
      }
    }
  }
}
MOTION
Frames:	12
Frame Time:	0.0333333
97.7183 95.9964 60.7864 -83.5351 -6.38778 -137.806 178.204 47.8502 138.643 -101.975 40.5426 9.58385 66.0289 8.53978 20.7932 46.209 15.2475 19.7709 176.636 34.0217 57.2263 -27.9074 -1.32693 -5.93809 70.3131 -11.7051 -7.31042 36.0324 -4.231 0.805536 -0.805375 8.12172 -87.4973 10.6118 -0.453259 5.01529 -1.06886 -0.232366 5.03033 -23.5351 -1.93798 4.64871 -3.52243 -1.93797 4.64871 88.8861 -53.0687 -101.778 22.0604 -33.5795 1.67347 -11.7175 -1.56803 -62.5008 -42.8232 -14.0109 13.2552 -99.256 -58.3169 67.8475 10.7549 -17.6175 1.43261 -5.37429 4.24127 -118.882 40.3746 6.9615 9.73985 -7.45665 26.7275 29.2832 -5.71297 24.4332 9.88638 
98.4795 95.3933 59.1475 -86.4781 -12.9181 -135.577 -173.484 57.3363 128.052 -117.837 38.9356 8.31746 67.0794 9.3399 19.7112 45.8773 15.6761 17.002 174.541 32.7244 59.6656 -28.8771 -0.675644 -4.75637 70.1601 -10.8371 -11.9392 33.8386 -2.39979 -1.39154 -0.201591 8.12194 -87.733 10.5935 0.640548 4.44781 -1.08483 0.835472 4.41539 -23.5594 -0.724404 4.43494 -3.54673 -0.724407 4.43493 87.9983 -54.6991 -102.68 21.4659 -41.4101 -12.8909 -16.4133 0.916136 -56.6126 -44.436 -13.7842 10.311 -101.294 -59.4873 65.5168 5.12778 -13.3484 -1.83045 -0.459013 0.178127 -120.816 37.3253 6.06941 8.56183 -9.47042 22.6773 29.9489 -5.27125 20.9116 6.31562 
98.664 94.5191 57.4333 -91.3766 -22.5547 -133.352 -149.208 63.886 99.8977 -131.342 39.2402 8.71158 67.3564 9.06034 18.3525 46.4765 16.666 16.7396 172.038 29.1949 63.0204 -29.6765 1.51538 -3.61162 70.8102 -10.9532 -16.8568 32.8623 -1.3549 -2.89971 0.226348 8.04214 -88.0616 10.7612 1.34519 3.73181 -0.914158 1.50805 3.66908 -23.4076 0.162301 3.96317 -3.39497 0.162327 3.96318 87.7395 -55.519 -102.851 15.8018 -42.2725 -26.1142 -17.7841 0.470175 -56.68 -46.2571 -13.8962 8.42455 -101.412 -59.3159 65.3051 1.52087 -5.55966 -5.32887 3.15188 -4.79141 -121.894 34.9636 5.4612 7.72846 -12.7182 17.5769 26.721 -3.97047 16.9169 5.97311 
98.3408 94.006 55.6374 -99.6244 -36.1388 -130.347 -125.643 60.7106 69.825 -137.547 35.6095 9.14633 65.8448 5.23337 16.5231 45.4738 15.3382 16.1992 166.766 23.2096 68.1664 -30.0495 4.49455 0.578864 71.6861 -8.67581 -21.5604 30.6259 0.0254393 -3.07985 0.291487 7.97031 -88.8456 10.916 1.11418 2.19235 -0.756281 1.20955 2.14122 -23.2773 0.403989 2.4257 -3.26461 0.404021 2.42572 89.0403 -53.7206 -101.396 11.2461 -36.7329 -35.3101 -22.3419 -4.09987 -60.0918 -42.2437 -12.8692 9.9627 -101.221 -58.939 65.4332 0.757623 -0.0291918 -13.0821 6.75647 -7.20704 -118.811 30.0179 4.28061 6.31647 -15.7725 12.2339 24.6336 -2.2191 12.3465 2.69211 
97.0313 93.7888 53.9937 -108.907 -48.8585 -131.777 -126.164 50.5392 67.4949 -134.726 37.1227 9.18141 61.3183 -3.22177 11.957 43.8161 13.4598 14.5324 164.237 17.2447 71.7567 -29.9509 8.36381 4.41147 72.159 -5.23393 -22.6075 31.5656 -1.12183 -1.3064 0.456146 7.80026 -89.3773 11.2643 1.19753 1.11977 -0.406536 1.24563 1.06598 -22.9399 0.805678 1.42788 -2.92723 0.805685 1.42787 90.7977 -51.2007 -99.3415 7.34437 -30.0529 -39.5065 -21.2095 -4.19893 -63.8788 -39.1082 -11.2626 8.17326 -100.919 -57.8052 65.4583 1.42367 3.17057 -23.2244 7.50486 -5.43543 -113.818 29.7181 4.1804 5.60358 -19.8019 6.73047 21.1356 -0.710448 7.51797 -1.33273 
95.5664 93.6691 52.7132 -118.2 -58.5263 -135.806 -135.068 41.4704 77.2368 -125.388 39.1863 7.56306 56.2969 -9.84829 5.65752 42.0132 11.2572 13.3936 165.678 11.7169 76.7403 -28.8375 7.75066 4.25914 71.748 -3.87692 -19.272 34.5437 -2.9157 -0.994279 0.771903 7.69454 -89.6934 11.4815 1.67911 0.439015 -0.188412 1.69681 0.364663 -22.7299 1.46953 0.923437 -2.71727 1.46953 0.923444 91.9996 -48.6884 -98.0161 2.71825 -23.1841 -41.1149 -18.708 -1.28449 -67.906 -33.3923 -9.02536 6.95706 -99.8097 -56.131 66.4029 1.44179 3.0161 -34.8072 8.57226 -0.7486 -108.2 27.1222 3.62929 4.67591 -22.5454 2.47203 16.5994 0.362536 3.32938 -4.35583 
94.4957 93.5083 51.9757 -128.745 -67.2662 -143.277 -143.866 32.4845 86.1394 -111.119 36.1207 4.25801 54.9379 -10.5111 3.22697 39.9865 10.0217 9.44787 169.017 8.94707 81.8953 -27.2891 3.41855 2.07195 71.1852 -5.26084 -15.9393 34.0556 -2.07979 -2.82926 0.936499 7.60945 -89.8793 11.6563 1.91942 0.0406682 -0.0131879 1.91936 -0.0438932 -22.559 1.81844 0.615831 -2.54631 1.81844 0.615843 92.9971 -44.6895 -97.213 -2.83054 -16.0804 -42.845 -18.1146 -0.181487 -69.7663 -29.8406 -7.58353 5.25955 -97.5905 -53.8064 68.7372 -0.512635 1.97521 -46.3868 8.73281 4.52293 -103.344 23.7948 3.00809 4.08619 -23.5027 -0.79114 13.9094 1.85067 -0.233094 -7.30717 
93.7939 92.976 51.7925 -159.253 -75.4509 -170.378 -153.622 23.9265 93.077 -96.2219 32.0223 1.68671 54.1482 -11.034 0.857839 39.2372 8.59447 10.285 171.031 8.00773 85.9943 -25.7631 3.29743 2.42562 71.0459 -5.6103 -17.5195 33.4643 -1.41033 -3.85288 0.636915 7.4694 -89.9751 11.9356 1.27827 -0.0879895 0.265197 1.27315 -0.144185 -22.2743 1.2456 0.300296 -2.2617 1.2456 0.300298 94.1931 -40.9232 -95.9334 -7.16467 -10.5876 -43.9921 -16.1765 3.03646 -67.8979 -25.8118 -6.17208 4.04204 -93.3252 -48.8052 73.4568 -5.2393 1.84358 -57.5687 8.02296 11.0372 -98.0362 23.1735 2.87176 1.89521 -22.8015 -2.99297 9.93652 1.20496 -2.87421 -8.74926 
93.5353 92.2499 51.2078 144.976 -73.983 135.99 -161.351 15.7301 97.5407 -80.9976 30.3557 0.768144 53.2143 -13.1424 5.48278 35.7177 2.88772 11.1751 170.615 10.0354 87.7306 -27.3371 6.79365 4.55916 71.8264 -5.46529 -15.9184 31.8254 -0.31281 -4.18915 0.0775339 7.25863 -89.8696 12.3571 0.215996 0.235209 0.686168 0.226134 0.225474 -21.8492 0.135315 0.289256 -1.83651 0.135313 0.289254 94.8877 -40.2924 -94.8432 -11.4206 -5.15567 -42.7148 -13.2964 6.34795 -65.3818 -21.8978 -4.91449 3.01713 -90.8499 -44.5737 76.1423 -7.97849 3.51788 -66.0928 8.235 16.7822 -93.1786 23.4911 2.90482 0.721619 -24.738 -5.11954 5.05242 1.64923 -5.32184 -9.61169 
93.4685 91.9618 50.2614 118.942 -65.2838 110.528 -165.532 9.37699 99.8983 -64.8998 26.4292 0.0346953 53.7095 -13.254 10.0495 30.5628 -4.71311 10.6901 170.477 12.8936 87.4253 -27.7121 3.6695 5.10708 70.1176 -3.97267 -17.6922 26.2794 2.52215 -2.70918 -0.166721 7.19024 -89.6999 12.4934 -0.188316 0.62153 0.822332 -0.160784 0.629206 -21.7121 -0.366403 0.536208 -1.69941 -0.366411 0.536199 96.4233 -40.4783 -92.118 -15.7312 0.545679 -39.5859 -15.3173 8.21486 -62.7277 -18.4364 -3.83773 1.42795 -89.9181 -41.4127 76.8463 -8.16132 6.86313 -74.37 5.86 19.4647 -88.9276 24.3401 3.00448 -0.917157 -24.7113 -7.7511 -0.371792 0.84386 -8.36241 -9.6175 
93.1343 91.481 49.184 106.283 -56.6066 99.4663 -167.618 6.30614 102.032 -50.8407 23.1364 -0.22808 54.9393 -11.1992 9.60328 32.1509 -3.06979 11.6635 170.699 16.6673 87.8316 -28.7441 1.08871 5.05953 67.7023 -1.84091 -23.2274 20.6116 5.41513 -1.39903 -0.251067 7.16305 -89.7568 12.5483 -0.382847 0.529989 0.877325 -0.359134 0.546315 -21.6576 -0.524428 0.390427 -1.64499 -0.524431 0.390427 96.6457 -39.0789 -91.9234 -17.0704 8.56448 -34.6018 -14.4744 10.5454 -60.7926 -15.0183 -2.88158 0.323338 -89.2564 -40.0115 77.5907 -6.86089 9.78296 -80.4729 6.80364 19.5575 -88.1427 22.7557 2.78582 -1.2283 -22.6257 -10.7571 -2.19519 0.00574703 -11.4954 -11.7174 
92.9913 91.2154 47.6153 98.6324 -46.2759 93.4064 -170.275 5.85087 101.974 -40.9934 22.5115 0.701564 57.1696 -6.3165 7.71346 38.679 6.79869 12.3804 168.479 20.3069 85.8717 -30.6192 3.44574 6.68462 66.5392 -0.43052 -22.3055 22.9712 3.79635 -0.999839 -0.479757 7.15141 -89.7928 12.5736 -0.854465 0.513963 0.902794 -0.831005 0.55106 -21.6345 -0.96941 0.233378 -1.62183 -0.96943 0.233382 96.9413 -38.9951 -91.4059 -19.2964 14.7 -29.2598 -15.341 14.6216 -58.5385 -12.4332 -2.21897 -1.02068 -88.8962 -38.9854 77.9441 -5.92154 11.9097 -83.9483 7.42818 20.1647 -88.6372 22.5047 2.75406 -1.08318 -21.0628 -13.4217 -4.7046 -0.609283 -14.2461 -13.3198 
